<svg width="120" height="121" viewBox="0 0 120 121" fill="none" xmlns="http://www.w3.org/2000/svg">
<path d="M80 120.5V100.5C91.0666 100.5 99.9998 91.5666 99.9998 80.5H120C120 102.633 102.066 120.5 80 120.5Z" fill="#FFD11A"/>
<path d="M79.9997 120.5V100.5C68.9331 100.5 59.9998 91.5668 59.9998 80.5002H40C40 102.633 57.9332 120.5 79.9997 120.5Z" fill="#FFD11A"/>
<path d="M0 80.498H19.9998C19.9998 91.5646 28.9331 100.498 39.9997 100.498V120.498C17.9332 120.498 0 102.631 0 80.498Z" fill="#FFD11A"/>
<path d="M0 80.4995H19.9998C19.9998 69.4329 28.9331 60.4996 39.9997 60.4996V40.4998C17.9332 40.4998 0 58.433 0 80.4995Z" fill="#FFD11A"/>
<path d="M39.9997 0.5V20.4998C28.9331 20.4998 19.9998 29.4331 19.9998 40.4997H0C0 18.4332 17.9332 0.5 39.9997 0.5Z" fill="#FFD11A"/>
<path d="M40 0.5V20.4998C51.0666 20.4998 59.9998 29.4331 59.9998 40.4997H79.9997C79.9997 18.4332 62.0665 0.5 40 0.5Z" fill="#FFD11A"/>
<path d="M119.999 40.4997H99.9989C99.9989 29.4331 91.0656 20.4998 79.999 20.4998V0.5C102.066 0.5 119.999 18.4332 119.999 40.4997Z" fill="#FFD11A"/>
<path d="M119.999 40.4993H99.9989C99.9989 51.5659 91.0656 60.4991 79.999 60.4991V80.499C102.066 80.499 119.999 62.6324 119.999 40.4993Z" fill="#FFD11A"/>
</svg>
